<svg focusable="false" width="48" height="48" viewBox="0 0 48 48" xmlns="http://www.w3.org/2000/svg"><g fill="none" fill-rule="nonzero"><path d="m4 4h40v8h-40z" fill="#2e75f0"/><path d="m4 14h9.23v5.2h-9.23zm10.26 0h9.23v5.2h-9.23zm10.25 0h9.23v5.2h-9.23zm10.26 0h9.23v5.2h-9.23zm-30.77 6.23h9.23v5.2h-9.23zm10.26 0h9.23v5.2h-9.23zm10.25 0h9.23v5.2h-9.23zm10.26 0h9.23v5.2h-9.23zm-30.77 6.24h9.23v5.19h-9.23v-5.2zm10.26 0h9.23v5.19h-9.23v-5.2zm10.25 0h9.23v5.19h-9.23v-5.2zm10.26 0h9.23v5.19h-9.23v-5.2zm-30.77 6.23h9.23v5.2h-9.23zm10.26 0h9.23v5.2h-9.23zm10.25 0h9.23v5.2h-9.23zm10.26 0h9.23v5.2h-9.23zm-30.77 6.23h9.23v5.2h-9.23zm10.26 0h9.23v5.2h-9.23zm10.25 0h9.23v5.2h-9.23zm10.26 0h9.23v5.2h-9.23z" fill="#abc7f9"/></g></svg>