<svg focusable="false" width="48" height="48" xmlns="http://www.w3.org/2000/svg" viewBox="0 0 48 48"><g fill="none" fill-rule="evenodd"><polyline stroke="#47515F" points="4.5 4 4.5 43.5 44 43.5"  vector-effect="non-scaling-stroke"/><path fill="#FCC838" fill-rule="nonzero" d="M13 22a3 3 0 1 1 0-6 3 3 0 0 1 0 6zm7 4a3 3 0 1 1 0-6 3 3 0 0 1 0 6zm7 4a3 3 0 1 1 0-6 3 3 0 0 1 0 6zm0-8a3 3 0 1 1 0-6 3 3 0 0 1 0 6zm-7-4a3 3 0 1 1 0-6 3 3 0 0 1 0 6zm14 8a3 3 0 1 1 0-6 3 3 0 0 1 0 6z"/><path fill="#2E75F0" fill-rule="nonzero" d="M13 38a3 3 0 1 1 0-6 3 3 0 0 1 0 6zm7-4a3 3 0 1 1 0-6 3 3 0 0 1 0 6zm-7-4a3 3 0 1 1 0-6 3 3 0 0 1 0 6z"/><path fill="#06BF7F" fill-rule="nonzero" d="M34 18a3 3 0 1 1 0-6 3 3 0 0 1 0 6zm7-4a3 3 0 1 1 0-6 3 3 0 0 1 0 6zm-14 0a3 3 0 1 1 0-6 3 3 0 0 1 0 6zm7-4a3 3 0 1 1 0-6 3 3 0 0 1 0 6z"/></g></svg>