<svg width="16" height="16" viewBox="0 0 16 16" fill="none" xmlns="http://www.w3.org/2000/svg">
<path fill-rule="evenodd" clip-rule="evenodd" d="M10.5205 3.471C8.50567 1.50949 5.46392 1.50976 3.44909 3.47127C1.60146 5.31494 1.43428 8.58108 3.44911 10.5426C5.09218 12.1422 7.41525 12.5767 9.75014 11.3124L13.0129 14.5751L14.5531 13.038L11.2888 9.77367C12.5931 7.82637 12.2763 5.18031 10.5205 3.471ZM4.86298 9.1274C6.08411 10.3485 7.88449 10.3485 9.10562 9.1274C10.3268 7.90627 10.3268 6.10589 9.10562 4.88476C7.88449 3.66362 6.08411 3.66362 4.86298 4.88476C3.64185 6.10589 3.64185 7.90627 4.86298 9.1274Z"/>
</svg>
