<svg focusable="false" width="48" height="48" viewBox="0 0 48 48" xmlns="http://www.w3.org/2000/svg"><g fill="none" fill-rule="nonzero"><path d="m2.62 15.14-.56-.34v-2.54l1.76.98v-1.06h3.52v2.96zm5.48 11.82-.5.44v1.94h-2.36v-1.4l-1.16-.72v-.52l-2.02-4.22v-4.16h2.74v2.96zm3.96-6.9h1.48v4.5h-4.44v-6.24h2.96zm6.58-5.36h4.28v3.14h-4.28zm3.12 20.78.4 1.28-2.44-.56-2-3.12-.98.82-1.74-3v-.18h3.68v-4.7h2.56v1.32l2.02 1.7.56-.4 1.56.82v3.1zm4.62-21.38h1.44l2.04 1.2v2.28h-2.88l-.28-.26v-1.24l-.92-.98zm2.32 8.22.64-.84h-1l-.92-1.52v-1.02l.54-.4-.66-.64 2.66.02.84.62v3.6l-.44 1.18-1.08.4zm5.6-4.1h1.54l.76-.88.02-.02v2.42h-.52v1.52l-1 .84-1.5-1.22v-2.66zm5.12 3.9-.22-.18.16-.2.24.18z" fill="#6a4aba"/><path d="m7.34 18h-5.28v-2.82l.48.28h4.8zm.32 0v-5.82h.48v1.1h.88l.82 2.38 1.8.6.42.42v1.32zm1.44 6.88h4.44v6.02h-2.64l-2.98-1.48v-1.88l.56-.42v-1.74h.62zm3.28-9h5.94v3.86h-5.94zm1.48 4.18h6.06v4.48h-6.06zm4.78-7.88h4.28v2.2h-4.28zm6.74 12.38h-5.14v-3.18h4.42l.72 1.12zm-3.82 2.62v-1.48h-2.88v-.82h6.7v4.22l-1.58-.84-.54.38zm4.82-10.32h-3.14v-4.68h3.94l-1.04 1.68-.14.24-.62 1.06 1 1.06zm-2.3 3-.84-1.32v-1.36h3.14v.26l1.08 1.06-.36.26v1.1zm1.64 2.54-1.44-2.22h2.9l.98 1.62h.54l-.36.48.86 2.08h-3.48zm2.5 6.8h-2.5v-4.5h3.88l-1.38 3.1zm.86-2.54h1.94v4.9h-1v-.86h-1.86l.38-.6v-2.22zm.92-11.66-1.88-1.1.64-.72v.84h1.36l.76-1.08h1.32zm3.28 5.9-.72.78-1.44.28v-3.4l.66-.34h1.5zm.34 9.72h-1.48v.94h-.8v-4.9h2.28zm-1.7-15 1.12-1.02h.38v1.4h.88v1.9h-2.38zm3.8 7.42-.86 1.32h-5.32l-.14-.34 1.22-.44.46-1.28 1.64-.34.72-.78zm-.62 2.68-.42.62h-5.44l.72-1.64h6.88l-.36.74zm2.1-4.98v.9h1.08l-1.3 1.22h-.96l-.66-.54 1.06-.92v-1.34h.2v.68zm-.12 8.46-1.98-2.54h2.32l1.32.88zm-.22 5.38-.8-3.18h-1.9l-.62.62-.44-.46h-.64v-.62h4.64v-.72h.2l1.72 3.18v2.6zm2.56-12.08.78 1.52v.34h-4.94l.76-1.16h1.08l1.46-1.38zm-2.2 2.2h2.98v1.38l-1.22 1.22-1.46-.96h-2.44l.22-.32 1.4-.3zm3.48-3.96.24 1.16h-.34v-1.16zm.62-2.58.3.36v2.16l-.58-.2.38-1.04-.68-.68zm1.54-.4-.86.26v-.84h.86zm-.5-1.94h-.32v-2.2h.96v.52l-.64.58zm1.1 1.36v.4l-.28.08v-.48zm1.08-.42-.2.48-.56.18v-.58h-1.74v-.7h1.98v.92l.24.02zm-.28-1.44v-1.96l.56-2.12h.44v1.26h.68v.72zm-1.32 2.8-1.04.36-.84-1.14h-3.2v-1h1.38l1.36-2.72h1.12v4.18l.28.44.9-.22zm-2.66 4.1h.7v.38h-.76l-.6-.36.34-.36-.64-.5-.34.38-.54-.44h-.92v-.58h2.76z" fill="#8c62f5"/><path d="m8.78 18.32v6.74h-.64v1.34l-3-5.2v-2.88zm9.58 12.08h-3.72v.5h-.78v-6.02h4.5zm-9.1-17.44h-.78v-.78h9.84v3.38h-6.26v.66l-.24-.24-1.74-.56zm10.98 6.78h-1.6v-1.56h4.28v.46l1.54 2.42h-4.22zm7.48 13.7-2-.9v-3.02h2.5v.48l-.66 1.02h2.14v2.42zm6.98-6.78 2.22 2.88.2.34h-.36v.74h-2.82v-3.96zm5.6-7.88.74.74-.32.88h-3.78v-3.46l.52-.6h.08v1.34h3.36l.2.22zm2.5-3.94.52-.58v-.64h.7v2.2h-1.22z" fill="#b094f8"/></g></svg>