<svg focusable="false" width="48" height="48" viewBox="0 0 48 48" xmlns="http://www.w3.org/2000/svg"><g fill="none" fill-rule="evenodd"><path d="m4 43.5h40" stroke="#47515f" vector-effect="non-scaling-stroke"/><g fill-rule="nonzero"><path d="m18.454 9.911-11.882 8.291-1.144-1.64 12.118-8.455 12.334-4.143 12.438 4.178-.636 1.896-11.802-3.964z" fill="#06bf7f"/><path d="m4 27.66h8v12.34h-8zm10.67-10.29h8v22.63h-8zm10.66-6.14h8v28.77h-8zm10.67 6.14h8v22.63h-8z" fill="#2e75f0"/><path d="m4 27.66h8v8.23h-8zm10.67-10.29h8v14.4h-8zm10.66-2.06h8v12.35h-8v-12.36zm10.67 2.06h8v12.34h-8z" fill="#48d1e0"/><path d="m4 27.66h8v4.11h-8zm10.67-10.29h8v8.23h-8zm10.66-6.14h8v6.17h-8zm10.67 6.14h8v6.17h-8z" fill="#fcc838"/></g></g></svg>