<svg focusable="false" width="48" height="48" xmlns="http://www.w3.org/2000/svg" viewBox="0 0 48 48"><g fill="none" fill-rule="evenodd"><path fill="#06BF7F" fill-rule="nonzero" d="M5 5h8v8H5V5zm10 0h8v8h-8V5zm10 10h8v8h-8v-8zm0 10h8v8h-8v-8zM15 35h8v8h-8v-8z"/><path fill="#56D3A8" fill-rule="nonzero" d="M5 15h8v8H5v-8zm10 0h8v8h-8v-8zM25 5h8v8h-8V5zM15 25h8v8h-8v-8zm20 0h8v8h-8v-8zM25 35h8v8h-8v-8z"/><rect width="8" height="8" x="35" y="5" fill="#049160" fill-rule="nonzero"/><path fill="#9BE5CB" fill-rule="nonzero" d="M35 15h8v8h-8v-8zM5 25h8v8H5v-8zm0 10h8v8H5v-8zm30 0h8v8h-8v-8z"/></g></svg>