<svg focusable="false" width="48" height="48" viewBox="0 0 48 48" xmlns="http://www.w3.org/2000/svg" xmlns:xlink="http://www.w3.org/1999/xlink"><mask id="a" fill="#fff"><path d="m0 .178h3.333v22.042h-3.333z" fill="#fff" fill-rule="evenodd"/></mask><g fill="none" fill-rule="evenodd"><g fill-rule="nonzero"><path d="m22.18 12v22c-4.9 0-9.95 10-14.85 10v-22.04c4.9 0 9.95-9.96 14.85-9.96z" fill="#b5ecf2"/><path d="m7.333 12h14.849v-8h-14.849z" fill="#fde9af"/><path d="m25.82 8v16.43c4.8 0 10.05 5.9 14.85 5.9v-18.86c-4.8 0-9.65-3.47-14.45-3.47" fill="#d1c0fb"/><path d="m25.82 34c4.8 0 10.05 10 14.85 10v-8.14c-4.8 0-10.05-11.42-14.85-11.42z" fill="#9be5cb"/><path d="m25.818 8h14.849v-4h-14.849z" fill="#ffccb3"/><path d="m22.182 34v-30h3.636v30z" fill="#2e75f0"/><path d="m4 12h3.333v-8h-3.333z" fill="#fcc838"/><path d="m40.667 8h3.333v-4h-3.333z" fill="#ff8142"/><path d="m40.667 43.998v-8.125h3.333v8.125z" fill="#06bf7f"/><path d="m40.667 30.336v-18.876h3.333v18.876z" fill="#8c62f5"/></g><g fill="#48d1e0" mask="url(#a)" transform="translate(4 21.778)"><path d="m0 0h53v53h-53z" transform="translate(-6.667 -24.444)"/></g></g></svg>