<svg focusable="false" width="48" height="48" viewBox="0 0 48 48" xmlns="http://www.w3.org/2000/svg"><g fill="none" fill-rule="evenodd"><path d="m13 22a3 3 0 1 1 0-6 3 3 0 0 1 0 6zm7 4a3 3 0 1 1 0-6 3 3 0 0 1 0 6zm-7 12a3 3 0 1 1 0-6 3 3 0 0 1 0 6zm7-4a3 3 0 1 1 0-6 3 3 0 0 1 0 6zm-7-4a3 3 0 1 1 0-6 3 3 0 0 1 0 6zm14 0a3 3 0 1 1 0-6 3 3 0 0 1 0 6z" fill="#2e75f0" fill-rule="nonzero"/><path d="m27 22a3 3 0 1 1 0-6 3 3 0 0 1 0 6zm-7-4a3 3 0 1 1 0-6 3 3 0 0 1 0 6zm14 8a3 3 0 1 1 0-6 3 3 0 0 1 0 6zm0-8a3 3 0 1 1 0-6 3 3 0 0 1 0 6zm7-4a3 3 0 1 1 0-6 3 3 0 0 1 0 6zm-14 0a3 3 0 1 1 0-6 3 3 0 0 1 0 6zm7-4a3 3 0 1 1 0-6 3 3 0 0 1 0 6z" fill="#dbdfe7"/><path d="m4.5 4v39.5h39.5" stroke="#47515f" vector-effect="non-scaling-stroke"/></g></svg>