<svg focusable="false" width="48" height="48" viewBox="0 0 48 48" xmlns="http://www.w3.org/2000/svg"><g fill="none" transform="translate(4 4)"><path d="m0 0h8v8h-8z" fill="#2e75f0"/><path d="m0 10h8v28h-8z" fill="#71a1f4"/><path d="m10.08 0h27.92v8h-27.92z" fill="#abc7f9"/><path d="m38.7 17.28-4.7-4.58-4.68 4.58 1.4 1.42 2.28-2.22v1.62c0 8.23-6.67 14.9-14.9 14.92h-1.7l2.26-2.32-1.42-1.4-4.56 4.7 4.58 4.68 1.42-1.4-2.2-2.24h1.6a16.94 16.94 0 0 0 16.92-16.92v-1.62l2.28 2.22z" fill="#323946"/></g></svg>