<svg focusable="false" width="48" height="48" viewBox="0 0 48 48" xmlns="http://www.w3.org/2000/svg"><g fill="none" fill-rule="evenodd"><g fill-rule="nonzero"><path d="m4.022 39.96h39.892v-26.833l-7.118-6.994-7.335 3.426-7.227-1.784-7.263 14.362-7.354 1.695z" fill="#06bf7f"/><path d="m4.022 39.96h39.892v-23.104l-7.118-1.535-7.335-2.854-7.227 4.068-7.263 10.455-7.354 1.23z" fill="#fcc838"/><path d="m4.022 39.96h39.892v-18.813l-7.118-1.704-7.335 3.43-7.227-2.525-7.263 9.932-7.354.905z" fill="#48d1e0"/><path d="m4.022 39.96h39.892v-10.473l-7.118.179-7.335 3.372-7.227-1.16-7.263 3.604-7.354.428z" fill="#2e75f0"/></g><path d="m4 43.5h40" stroke="#47515f" vector-effect="non-scaling-stroke"/></g></svg>