<svg width="140" height="118" viewBox="0 0 140 118" fill="none" xmlns="http://www.w3.org/2000/svg">
<circle cx="131.607" cy="66.7734" r="1.39288" transform="rotate(90 131.607 66.7734)" fill="#777E8B"/>
<circle cx="131.607" cy="72.7964" r="1.39288" transform="rotate(90 131.607 72.7964)" fill="#777E8B"/>
<circle cx="131.607" cy="78.8197" r="1.39288" transform="rotate(90 131.607 78.8197)" fill="#777E8B"/>
<circle cx="131.607" cy="84.8429" r="1.39288" transform="rotate(90 131.607 84.8429)" fill="#777E8B"/>
<circle cx="125.584" cy="66.7734" r="1.39288" transform="rotate(90 125.584 66.7734)" fill="#777E8B"/>
<circle cx="125.584" cy="72.7964" r="1.39288" transform="rotate(90 125.584 72.7964)" fill="#777E8B"/>
<circle cx="125.584" cy="78.8197" r="1.39288" transform="rotate(90 125.584 78.8197)" fill="#777E8B"/>
<circle cx="125.584" cy="84.8429" r="1.39288" transform="rotate(90 125.584 84.8429)" fill="#777E8B"/>
<circle cx="119.561" cy="66.7734" r="1.39288" transform="rotate(90 119.561 66.7734)" fill="#777E8B"/>
<circle cx="119.561" cy="72.7964" r="1.39288" transform="rotate(90 119.561 72.7964)" fill="#777E8B"/>
<circle cx="119.561" cy="78.8197" r="1.39288" transform="rotate(90 119.561 78.8197)" fill="#777E8B"/>
<circle cx="119.561" cy="84.8429" r="1.39288" transform="rotate(90 119.561 84.8429)" fill="#777E8B"/>
<circle cx="113.538" cy="66.7734" r="1.39288" transform="rotate(90 113.538 66.7734)" fill="#777E8B"/>
<circle cx="113.538" cy="72.7964" r="1.39288" transform="rotate(90 113.538 72.7964)" fill="#777E8B"/>
<circle cx="113.538" cy="78.8197" r="1.39288" transform="rotate(90 113.538 78.8197)" fill="#777E8B"/>
<circle cx="113.538" cy="84.8429" r="1.39288" transform="rotate(90 113.538 84.8429)" fill="#777E8B"/>
<circle cx="108.024" cy="60.7502" r="1.39288" transform="rotate(90 108.024 60.7502)" fill="#777E8B"/>
<circle cx="108.024" cy="66.7734" r="1.39288" transform="rotate(90 108.024 66.7734)" fill="#777E8B"/>
<circle cx="108.024" cy="72.7964" r="1.39288" transform="rotate(90 108.024 72.7964)" fill="#777E8B"/>
<circle cx="108.024" cy="78.8197" r="1.39288" transform="rotate(90 108.024 78.8197)" fill="#777E8B"/>
<circle cx="108.024" cy="84.8429" r="1.39288" transform="rotate(90 108.024 84.8429)" fill="#777E8B"/>
<circle cx="102.34" cy="60.7501" r="1.39288" transform="rotate(90 102.34 60.7501)" fill="#777E8B"/>
<circle cx="102.34" cy="66.7734" r="1.39288" transform="rotate(90 102.34 66.7734)" fill="#777E8B"/>
<circle cx="102.34" cy="72.7964" r="1.39288" transform="rotate(90 102.34 72.7964)" fill="#777E8B"/>
<circle cx="102.34" cy="78.8197" r="1.39288" transform="rotate(90 102.34 78.8197)" fill="#777E8B"/>
<circle cx="102.34" cy="84.8429" r="1.39288" transform="rotate(90 102.34 84.8429)" fill="#777E8B"/>
<circle cx="96.3167" cy="60.7501" r="1.39288" transform="rotate(90 96.3167 60.7501)" fill="#777E8B"/>
<circle cx="96.3167" cy="66.7734" r="1.39288" transform="rotate(90 96.3167 66.7734)" fill="#777E8B"/>
<circle cx="96.3167" cy="72.7964" r="1.39288" transform="rotate(90 96.3167 72.7964)" fill="#777E8B"/>
<circle cx="96.3167" cy="78.8197" r="1.39288" transform="rotate(90 96.3167 78.8197)" fill="#777E8B"/>
<circle cx="96.3167" cy="84.8429" r="1.39288" transform="rotate(90 96.3167 84.8429)" fill="#777E8B"/>
<circle cx="90.2935" cy="60.7501" r="1.39288" transform="rotate(90 90.2935 60.7501)" fill="#777E8B"/>
<circle cx="90.2935" cy="66.7734" r="1.39288" transform="rotate(90 90.2935 66.7734)" fill="#777E8B"/>
<circle cx="90.2935" cy="72.7964" r="1.39288" transform="rotate(90 90.2935 72.7964)" fill="#777E8B"/>
<circle cx="90.2935" cy="78.8197" r="1.39288" transform="rotate(90 90.2935 78.8197)" fill="#777E8B"/>
<circle cx="90.2935" cy="84.8429" r="1.39288" transform="rotate(90 90.2935 84.8429)" fill="#777E8B"/>
<circle cx="102.422" cy="98.1718" r="1.39288" transform="rotate(90 102.422 98.1718)" fill="#777E8B"/>
<circle cx="102.422" cy="104.195" r="1.39288" transform="rotate(90 102.422 104.195)" fill="#777E8B"/>
<circle cx="102.422" cy="110.218" r="1.39288" transform="rotate(90 102.422 110.218)" fill="#777E8B"/>
<circle cx="102.422" cy="116.241" r="1.39288" transform="rotate(90 102.422 116.241)" fill="#777E8B"/>
<circle cx="96.399" cy="98.1719" r="1.39288" transform="rotate(90 96.399 98.1719)" fill="#777E8B"/>
<circle cx="96.399" cy="104.195" r="1.39288" transform="rotate(90 96.399 104.195)" fill="#777E8B"/>
<circle cx="96.399" cy="110.218" r="1.39288" transform="rotate(90 96.399 110.218)" fill="#777E8B"/>
<circle cx="96.399" cy="116.241" r="1.39288" transform="rotate(90 96.399 116.241)" fill="#777E8B"/>
<circle cx="90.376" cy="98.1719" r="1.39288" transform="rotate(90 90.376 98.1719)" fill="#777E8B"/>
<circle cx="90.376" cy="104.195" r="1.39288" transform="rotate(90 90.376 104.195)" fill="#777E8B"/>
<circle cx="90.376" cy="110.218" r="1.39288" transform="rotate(90 90.376 110.218)" fill="#777E8B"/>
<circle cx="90.376" cy="116.241" r="1.39288" transform="rotate(90 90.376 116.241)" fill="#777E8B"/>
<circle cx="84.3527" cy="98.1719" r="1.39288" transform="rotate(90 84.3527 98.1719)" fill="#777E8B"/>
<circle cx="84.3527" cy="104.195" r="1.39288" transform="rotate(90 84.3527 104.195)" fill="#777E8B"/>
<circle cx="84.3527" cy="110.218" r="1.39288" transform="rotate(90 84.3527 110.218)" fill="#777E8B"/>
<circle cx="84.3527" cy="116.241" r="1.39288" transform="rotate(90 84.3527 116.241)" fill="#777E8B"/>
<circle cx="78.8316" cy="98.1719" r="1.39288" transform="rotate(90 78.8316 98.1719)" fill="#777E8B"/>
<circle cx="78.8316" cy="104.195" r="1.39288" transform="rotate(90 78.8316 104.195)" fill="#777E8B"/>
<circle cx="78.8316" cy="110.218" r="1.39288" transform="rotate(90 78.8316 110.218)" fill="#777E8B"/>
<circle cx="78.8316" cy="116.241" r="1.39288" transform="rotate(90 78.8316 116.241)" fill="#777E8B"/>
<circle cx="131.607" cy="92.0556" r="1.39288" transform="rotate(90 131.607 92.0556)" fill="#777E8B"/>
<circle cx="131.607" cy="98.0788" r="1.39288" transform="rotate(90 131.607 98.0788)" fill="#777E8B"/>
<circle cx="131.607" cy="104.102" r="1.39288" transform="rotate(90 131.607 104.102)" fill="#777E8B"/>
<circle cx="131.607" cy="110.125" r="1.39288" transform="rotate(90 131.607 110.125)" fill="#777E8B"/>
<circle cx="131.607" cy="116.148" r="1.39288" transform="rotate(90 131.607 116.148)" fill="#777E8B"/>
<circle cx="125.584" cy="92.0556" r="1.39288" transform="rotate(90 125.584 92.0556)" fill="#777E8B"/>
<circle cx="125.584" cy="98.0788" r="1.39288" transform="rotate(90 125.584 98.0788)" fill="#777E8B"/>
<circle cx="125.584" cy="104.102" r="1.39288" transform="rotate(90 125.584 104.102)" fill="#777E8B"/>
<circle cx="125.584" cy="110.125" r="1.39288" transform="rotate(90 125.584 110.125)" fill="#777E8B"/>
<circle cx="125.584" cy="116.148" r="1.39288" transform="rotate(90 125.584 116.148)" fill="#777E8B"/>
<circle cx="119.561" cy="92.0556" r="1.39288" transform="rotate(90 119.561 92.0556)" fill="#777E8B"/>
<circle cx="119.561" cy="98.0788" r="1.39288" transform="rotate(90 119.561 98.0788)" fill="#777E8B"/>
<circle cx="119.561" cy="104.102" r="1.39288" transform="rotate(90 119.561 104.102)" fill="#777E8B"/>
<circle cx="119.561" cy="110.125" r="1.39288" transform="rotate(90 119.561 110.125)" fill="#777E8B"/>
<circle cx="119.561" cy="116.148" r="1.39288" transform="rotate(90 119.561 116.148)" fill="#777E8B"/>
<circle cx="113.538" cy="92.0556" r="1.39288" transform="rotate(90 113.538 92.0556)" fill="#777E8B"/>
<circle cx="113.538" cy="98.0788" r="1.39288" transform="rotate(90 113.538 98.0788)" fill="#777E8B"/>
<circle cx="113.538" cy="104.102" r="1.39288" transform="rotate(90 113.538 104.102)" fill="#777E8B"/>
<circle cx="113.538" cy="110.125" r="1.39288" transform="rotate(90 113.538 110.125)" fill="#777E8B"/>
<circle cx="113.538" cy="116.148" r="1.39288" transform="rotate(90 113.538 116.148)" fill="#777E8B"/>
<circle cx="108.016" cy="98.0788" r="1.39288" transform="rotate(90 108.016 98.0788)" fill="#777E8B"/>
<circle cx="108.016" cy="104.102" r="1.39288" transform="rotate(90 108.016 104.102)" fill="#777E8B"/>
<circle cx="108.016" cy="110.125" r="1.39288" transform="rotate(90 108.016 110.125)" fill="#777E8B"/>
<circle cx="108.016" cy="116.148" r="1.39288" transform="rotate(90 108.016 116.148)" fill="#777E8B"/>
<rect x="32.1352" y="17.8169" width="77.5717" height="75.5303" fill="#C0C6CF"/>
<path d="M10 3H61.6489" stroke="#777E8B" stroke-width="5"/>
<path d="M10 13.3298H61.6489" stroke="#777E8B" stroke-width="5"/>
<path d="M10 23.6595H61.6489" stroke="#777E8B" stroke-width="5"/>
<path d="M10 33.9893H61.6489" stroke="#777E8B" stroke-width="5"/>
<path d="M10 44.319H61.6489" stroke="#777E8B" stroke-width="5"/>
<path d="M32.1353 23.6595H61.6489" stroke="white" stroke-width="5"/>
<path d="M32.1353 33.9893H61.6489" stroke="white" stroke-width="5"/>
<path d="M32.1353 44.319H61.6489" stroke="white" stroke-width="5"/>
</svg>
