<svg width="48" height="48" viewBox="0 0 48 48" fill="none" xmlns="http://www.w3.org/2000/svg">
<path d="M3.0235 44V33.6395L16.3257 27.4244L27.5815 33.6395L43.9535 23.281V44H3.0235Z" fill="#ABC7F9"/>
<path d="M46 23.281C46 24.4252 45.0838 25.3527 43.9535 25.3527C42.8233 25.3527 41.907 24.4252 41.907 23.281C41.907 22.1368 42.8233 21.2093 43.9535 21.2093C45.0838 21.2093 46 22.1368 46 23.281Z" fill="#2770EF"/>
<path fill-rule="evenodd" clip-rule="evenodd" d="M44.8179 22.7268C45.1203 23.2101 44.9784 23.85 44.501 24.1561L28.3444 34.5146C28.0317 34.7151 27.6365 34.729 27.3109 34.5511L15.9283 28.3314L3.47726 34.5679C2.97075 34.8216 2.35697 34.6116 2.10635 34.0989C1.85573 33.5861 2.06318 32.9648 2.56969 32.7111L15.495 26.2371C15.7924 26.0881 16.1427 26.0944 16.4348 26.2539L27.7556 32.4399L43.406 22.4059C43.8834 22.0998 44.5156 22.2435 44.8179 22.7268Z" fill="#3872F7"/>
<path fill-rule="evenodd" clip-rule="evenodd" d="M16.2557 4L16.2557 21.6094L14.2092 21.6094L14.2092 4L16.2557 4Z" fill="#56CCF2"/>
<path fill-rule="evenodd" clip-rule="evenodd" d="M10.1162 4L10.1162 21.6094L8.06974 21.6094L8.06974 4L10.1162 4Z" fill="#56CCF2"/>
<path fill-rule="evenodd" clip-rule="evenodd" d="M5 8.14343H19.3255V10.2151H5V8.14343Z" fill="#3872F7"/>
<path fill-rule="evenodd" clip-rule="evenodd" d="M5 16.4302H19.3255V18.5019H5V16.4302Z" fill="#3872F7"/>
</svg>
