<svg focusable="false" width="48" height="48" viewBox="0 0 48 48" xmlns="http://www.w3.org/2000/svg"><g fill="none" fill-rule="nonzero"><path d="m4.5 12.57 19.3-11.15 19.3 11.15v22.28l-19.3 11.15-19.3-11.14v-22.3zm1 .57v21.14l18.3 10.56 18.3-10.56v-21.14l-18.3-10.56zm4 2.43 14.1-8.15 14.11 8.15v16.29l-14.1 8.14-14.11-8.14v-16.3zm1 .57v15.14l13.1 7.56 13.11-7.56v-15.14l-13.1-7.56zm12.91-2.72 8.91 5.15v10.29l-8.91 5.14-8.91-5.14v-10.3zm0 1.16-7.91 4.56v9.14l7.91 4.56 7.91-4.56v-9.14z" fill="#c0c6cf"/><path d="m31 28-6 12-14-8-4-18 16-8 10 14z" fill="#fcc838" opacity=".4"/><path d="m32.46 20.1-9.62-13.46-15.27 7.63 3.87 17.4 13.35 7.63 5.74-11.47zm-1.01 8.12-6.25 12.48-14.65-8.38-4.13-18.6 16.73-8.36 10.39 14.54-2.05 8.22z" fill="#fcc838"/><path d="m23.944 8 13.056 10 2 14-15.056 10-8.944-12 2-10z" fill="#2e75f0" opacity=".4"/><path d="m24.1 8.74-6.63 11.44-1.94 9.7 8.53 11.44 14.4-9.56-1.93-13.49zm13.37 8.99 2.07 14.51-15.71 10.44-9.36-12.56 2.03-10.22.06-.15 7.23-12.5 13.67 10.48z" fill="#2e75f0"/><g fill="#06bf7f"><path d="m9 34 6-16 8-10 8 14 6 8-12 8z" opacity=".4"/><path d="m9.66 33.65 15.25 3.81 11.37-7.58-5.71-7.63-7.64-13.36-7.49 9.36zm4.87-15.83.08-.13 8.46-10.59.36.64 7.97 13.96 6.32 8.42-12.63 8.42-16.75-4.2 6.2-16.52z"/></g></g></svg>