<svg xmlns="http://www.w3.org/2000/svg" xmlns:xlink="http://www.w3.org/1999/xlink" version="1.1" id="Layer_1" x="0px" y="0px" viewBox="-120.5 -87.6 939.5 182.6" style="enable-background:new -120.5 -87.6 939.5 182.6;" xml:space="preserve">
 <g id="BG">
 </g>
 <g id="Art">
  <g>
   <g>
    <path d="M791.1-5.6V-17h-13.5v-16.5h-11.4V-17h-10.9v11.4H766v33c0,9.5,7.9,17.4,17.4,17.4h7.7V33.4h-7.7c-3.3,0-6-2.6-6-6v-33     H791.1z" stroke="black" stroke-width="4">
    </path>
    <path d="M724.4-18.1c12.3,0,22.1,10,22.1,22.3v18.6c0,12.1-10,22.3-22.1,22.3H720c-12.1,0-22.1-10-22.1-22.3V4.2     c0-12.3,10-22.3,22.1-22.3H724.4z M709.5,4.2v18.6c0,6,4.9,10.7,10.7,10.7h4.4c6,0,10.7-4.9,10.7-10.7V4.2     c0-6-4.6-10.7-10.7-10.7h-4.4C714.4-6.8,709.5-1.9,709.5,4.2z" stroke="black" stroke-width="4">
    </path>
    <path d="M685.4,4.2v18.6c0,12.3-10,22.3-22.1,22.3h-1.4c-5.1,0-10-1.9-13.7-4.9v24.6h-11.4V-17h11.4v3.7c3.7-3,8.4-4.9,13.7-4.9     h1.4C675.4-18.1,685.4-8.1,685.4,4.2z M674,4.2c0-5.8-4.6-10.7-10.7-10.7h-4.4c-5.8,0-10.7,4.9-10.7,10.7v18.6     c0,6,4.9,10.7,10.7,10.7h4.4c6,0,10.7-4.9,10.7-10.7V4.2z" stroke="black" stroke-width="4">
    </path>
    <path d="M583.4,24.8c1.2,4.9,5.3,8.6,10.7,8.6h7.9c5.8,0,10.7-4.9,10.7-10.7c0-6.7-4.2-10.7-10.2-13L592,5.8     c-9.8-3.7-17.9-10.2-17.9-22.5s10-22.3,22.1-22.3h5.6c10.2,0,19,7,21.4,16.7l-11.2,3.3c-0.9-4.9-5.3-8.4-10.5-8.4h-5.6     c-6,0-10.7,4.9-10.7,10.7c0,4.6,1.6,8.1,10.9,11.8l10.5,4.2C617.3,3.7,624,11.6,624,22.7c0,12.3-10,22.1-22.1,22.1h-7.9     c-10.5,0-19-7.2-21.6-16.7L583.4,24.8z" stroke="black" stroke-width="4">
    </path>
    <path d="M561.5-5.6V-17h-13.5v-16.5h-11.4V-17H526v11.4h10.7v33c0,9.5,7.9,17.4,17.4,17.4h7.7V33.4h-7.7c-3.3,0-6-2.6-6-6v-33     H561.5z" stroke="black" stroke-width="4">
    </path>
    <path d="M515.8,4.2v39.7h-11.4V4.2c0-6-4.6-10.7-10.7-10.7h-4.4c-5.8,0-10.7,4.9-10.7,10.7v39.7h-11.4v-81.8h11.4v24.6     c3.7-3,8.4-4.9,13.7-4.9h1.4C506-18.1,515.8-8.1,515.8,4.2z" stroke="black" stroke-width="4">
    </path>
    <path d="M452.3-17v60.4c0,12.3-9.8,22.1-22.1,22.1h-4.6c-10.5,0-19-7.2-21.4-16.7l10.9-3.3c1.2,4.6,5.3,8.4,10.5,8.4h4.6     c5.8,0,10.7-4.9,10.7-10.7V36c-3.7,3-8.4,4.9-13.7,4.9h-1.4c-12.1,0-22.1-10-22.1-22.3V3.7c0-12.3,10-22.3,22.1-22.3h1.4     c5.1,0,10,1.9,13.7,4.9v-3.7L452.3-17L452.3-17z M441,19V4.2c0-6-4.6-10.7-10.7-10.7h-4.4c-5.8,0-10.7,4.9-10.7,10.7V19     c0,5.8,4.9,10.7,10.7,10.7h4.4C436.1,29.7,441,24.8,441,19z" stroke="black" stroke-width="4">
    </path>
    <path d="M353.6-17v39.7c0,6,4.6,10.7,10.7,10.7h4.4c6,0,10.7-4.9,10.7-10.7V-17h11.4v39.7c0,12.3-10,22.1-22.1,22.1h-4.4     c-12.3,0-22.1-10-22.1-22.3V-17H353.6L353.6-17z" stroke="black" stroke-width="4">
    </path>
    <path d="M306.7-18.1c12.3,0,22.1,10,22.1,22.3v18.6c0,12.1-10,22.3-22.1,22.3h-4.4c-12.1,0-22.1-10-22.1-22.3V4.2     c0-12.3,10-22.3,22.1-22.3H306.7z M291.6,4.2v18.6c0,6,4.9,10.7,10.7,10.7h4.4c6,0,10.7-4.9,10.7-10.7V4.2     c0-6-4.6-10.7-10.7-10.7h-4.4C296.5-6.8,291.6-1.9,291.6,4.2z" stroke="black" stroke-width="4">
    </path>
    <path d="M267,4.2v39.7h-11.4V4.2c0-6-4.6-10.7-10.7-10.7h-4.4c-5.8,0-10.7,4.9-10.7,10.7v39.7h-11.4v-81.8h11.4v24.6     c3.7-3,8.4-4.9,13.7-4.9h1.4C257-18.1,267-8.1,267,4.2z" stroke="black" stroke-width="4">
    </path>
    <path d="M206.1-37.9v11.4h-23v70.2h-11.4v-69.9h-23v-11.4L206.1-37.9L206.1-37.9z" stroke="black" stroke-width="4">
    </path>
    <circle cx="39.5" cy="72.2" r="22.8" stroke="black" stroke-width="2">
    </circle>
    <polygon points="60.7,-42.3 -120.5,-42.3 -120.5,-30.9 -58.3,-30.9 -58.3,93.6 -46.9,93.6 -46.9,-30.9 -35.5,-30.9 -35.5,93.6      -24.4,93.6 -24.4,-30.9 -13,-30.9 -13,93.6 -1.6,93.6 -1.6,-30.9 60.7,-30.9    " stroke="black" stroke-width="4">
    </polygon>
    <rect x="-120.5" y="-64.8" width="181.2" height="11.4" stroke="black" stroke-width="4">
    </rect>
    <rect x="-120.5" y="-87.6" width="181.2" height="11.4" stroke="black" stroke-width="2">
    </rect>
   </g>
   <path id="_xAE_" d="M809.6,45.1c5.1,0,9.3-4.2,9.3-9.3s-4.2-9.3-9.3-9.3c-5.3,0-9.3,4.2-9.3,9.3S804.3,45.1,809.6,45.1z     M809.6,43.4c-4.2,0-7.4-3.5-7.4-7.7s3.3-7.7,7.4-7.7c4.2,0,7.4,3.5,7.4,7.7S813.8,43.4,809.6,43.4z M808,41.1v-4.2h1.2l2.6,4.2    h2.1l-2.6-4.4c1.4-0.5,2.6-1.4,2.6-3c0-0.9-0.5-1.9-1.2-2.6c-0.7-0.5-1.6-0.7-2.8-0.7h-3.7v10.5h1.9V41.1z M809.6,35.3H808V32h1.6    c1.4,0,2.3,0.5,2.3,1.6C812,34.8,811,35.3,809.6,35.3z" stroke="black" stroke-width="2">
   </path>
  </g>
 </g>
</svg>