<svg focusable="false" width="48" height="48" viewBox="0 0 48 48" xmlns="http://www.w3.org/2000/svg" xmlns:xlink="http://www.w3.org/1999/xlink"><radialGradient id="a" cx="50%" cy="50%" r="50%"><stop offset="0" stop-color="#48d1e0"/><stop offset=".3673" stop-color="#3872f7"/><stop offset=".5261" stop-color="#8b60f0"/><stop offset=".7926" stop-color="#cc738e" stop-opacity=".89"/><stop offset="1" stop-color="#fcc838"/></radialGradient><g fill="none" fill-rule="evenodd"><path d="m45.74 13.1c-.2-.28-.46-.52-.64-.8-.1-.2-.16-.42-.2-.64-.2-.68-.44-.78-.98-.42l-.42-.24c-.13.58-.23 1.17-.28 1.76.05.72-.4 1.38-1.08 1.6-.5.16-1 .3-1.52.4-.42.08-.77.36-.96.74l-.4.74.2.44c-.28.43-.8.65-1.3.56-.2 0-.4.06-.56.16 0 0-.18.28-.16.34.28.38 0 .6-.2.78s-.94.7-1.38 1.1a1 1 0 0 1 -1.54 0l.5-.92a.36.36 0 0 0 0-.2 9.7 9.7 0 0 0 -.28-1.22c-.1-.3-.32-.32-.52 0l-.3.4h-.14c0-.18.16-.38.26-.56.27-.48.12-1.08-.34-1.38h-.18c-.66.02-1.3-.26-1.72-.76-.36-.06-.7-.15-1.04-.28a5 5 0 0 1 -.94-.7l-.74.54c-.38.28-.52.24-.74-.18l-.72.34v-.14l.58-.56a2.32 2.32 0 0 1 -1.86-1.2v-.14a.64.64 0 0 1 -.46 0 1.7 1.7 0 0 1 -.66-.14l-.6-.24a67.02 67.02 0 0 1 -18.74-2.84v1.38c-.12-.18-.18-.36-.32-.44l-1.36-.68v.96a9.12 9.12 0 0 1 -.98 4c-.46.69-.7 1.5-.7 2.32.05.43-.07.87-.32 1.22a1.2 1.2 0 0 0 0 .7c0 .24.16.54 0 .72-.32.74.34 1.26.28 2 0 .2 0 .4.14.62s0 .46 0 .54.42.4 0 .7 0 .2 0 .3.36.7.5 1.08c.07.24.07.5 0 .74-.12.4 0 .48.32.6.26.07.49.22.66.42.2.32.54.44.76.74.36.31.58.75.62 1.22 0 .28 0 .4.38.44a3.2 3.2 0 0 1 2.12.68c.71.42 1.46.78 2.22 1.1 1.05.54 2.2.85 3.38.9l.1-.52c.36.03.72.09 1.08.16.2.06.38.17.52.32.31.3.6.63.86.98.16.26.3.54.42.82.1.25.22.49.38.7.3.26.64.5.98.72.12-.16.3-.28.36-.44s.26-.52.54-.5c.28-.01.55.06.78.22.28.32.52.67.72 1.04l.78 1.3c.06.08.1.18.12.28.1.64.3 1.2.96 1.4l.86.32c.13.02.27.02.4 0-.12-.4-.2-.83-.22-1.26a2 2 0 0 1 1.4-1.84c.27-.08.52-.23.72-.44.17-.3.45-.52.78-.62a2.7 2.7 0 0 1 1.6 0h.62v-.34c.5.32.94.82 1.66.62.19-.43.5-.8.9-1.04a.44.44 0 0 0 -.16-.26c.42-.1.92-.4 1.16-.24s.7 0 1 0c.44-.08.9.02 1.26.28.1 0 .16.22.28.42.29-.1.56-.24.8-.42.38-.42.62-.1.86.12s.32.44.52.5a.54.54 0 0 1 .38.72c-.18.54 0 .88.3 1.24.22.33.46.64.72.94.14.18.22.48.38.54s.46.36.6.64c.05.08.14.12.24.12.38 0 .56-.24.6-.74.13-.6.03-1.24-.28-1.78a6 6 0 0 1 -.5-1.04c0-.18 0-.42-.18-.54a5.64 5.64 0 0 1 -.84-1.44c-.35-1-.12-2.13.62-2.9.42-.3.73-.73.88-1.22 0-.2.36-.36.56-.54l.36-.38.76-.84.36-.3-.26-.46c.38-.14.64-.3.58-.74h-.1l-.34-.12h.16c-.38-.5-.6-1.1-.6-1.72l-.12-.74.16.14.12-.48c0-.89.44-1.71 1.18-2.2v-.14l1.28-.96-.2-.28c.26-.2.52-.42.8-.62.6-.4 0-.58-.14-.88v-.22c-.1-.56.07-1.14.48-1.54.24-.22.42-.52.66-.74s.7-.56 1.1-.86c-.1-.28-.24-.55-.4-.8z" fill="#dbdfe7"/><g fill="url(#a)" fill-rule="nonzero"><circle cx="40" cy="22" r="6"/><circle cx="31" cy="31" r="5"/><circle cx="27" cy="19" r="3"/><circle cx="9" cy="29" r="5"/><circle cx="6" cy="16" r="4"/><circle cx="3" cy="23" r="3"/></g></g></svg>