<svg width="140" height="118" viewBox="0 0 140 118" fill="none" xmlns="http://www.w3.org/2000/svg">
<path fill-rule="evenodd" clip-rule="evenodd" d="M70.4524 100.079C93.0354 100.079 111.342 81.7718 111.342 59.1889C111.342 36.6059 93.0354 18.2988 70.4524 18.2988C47.8695 18.2988 29.5624 36.6059 29.5624 59.1889C29.5624 81.7718 47.8695 100.079 70.4524 100.079ZM72.9949 49.4437C78.9627 49.4437 87.7358 55.4941 87.7358 64.5698H52.3259C52.3259 55.4941 61.2957 49.4437 67.0933 49.4437V43.3932C64.0015 42.1486 61.0969 38.6969 61.2957 34.3176H78.9627C79.1836 38.7891 76.1971 42.1716 72.9949 43.3932V49.4437ZM67.0933 67.595H72.995V79.6959L70.0442 85.7463L67.0933 79.6959V67.595Z" fill="#C0C6CF"/>
<path fill-rule="evenodd" clip-rule="evenodd" d="M129.006 27.0504C128.936 28.0681 128.805 29.0689 128.616 30.0494H79.5617C79.3732 29.0689 79.242 28.0681 79.1718 27.0504H129.006ZM82.039 37.0486C81.5246 36.0848 81.0716 35.0833 80.6851 34.0494H127.493C127.107 35.0833 126.654 36.0848 126.139 37.0486H82.039ZM84.697 41.0486C85.5731 42.1265 86.5373 43.1299 87.5786 44.0479H120.6C121.641 43.1299 122.605 42.1265 123.481 41.0486H84.697ZM104.089 50.2826C100.401 50.2826 96.8989 49.483 93.7477 48.0479H114.43C111.279 49.483 107.778 50.2826 104.089 50.2826ZM79.2121 23.0504C79.3033 22.0318 79.4556 21.0308 79.6653 20.0512H128.513C128.723 21.0308 128.875 22.0318 128.966 23.0504H79.2121ZM127.296 16.0512H80.8821C81.2955 15.0155 81.7761 14.0141 82.3186 13.0522H125.859C126.402 14.0141 126.883 15.0155 127.296 16.0512ZM123.056 9.0522C122.125 7.9678 121.104 6.96409 120.003 6.053H88.1751C87.0742 6.96409 86.0527 7.9678 85.1225 9.0522H123.056ZM113.229 2.053H94.9493C97.78 0.93946 100.863 0.327881 104.089 0.327881C107.315 0.327881 110.398 0.93946 113.229 2.053Z" fill="#747E8C"/>
<mask id="mask0" mask-type="alpha" maskUnits="userSpaceOnUse" x="29" y="18" width="83" height="83">
<circle cx="70.4524" cy="59.1889" r="40.89" fill="#C0C6CF"/>
</mask>
<g mask="url(#mask0)">
<path fill-rule="evenodd" clip-rule="evenodd" d="M129.006 27.0506C128.936 28.0682 128.805 29.069 128.617 30.0495H79.5618C79.3733 29.069 79.2421 28.0682 79.1719 27.0506H129.006ZM82.0391 37.0487C81.5247 36.0849 81.0717 35.0834 80.6852 34.0495H127.493C127.107 35.0834 126.654 36.0849 126.139 37.0487H82.0391ZM84.6971 41.0487C85.5732 42.1266 86.5374 43.13 87.5787 44.048H120.6C121.641 43.13 122.605 42.1266 123.481 41.0487H84.6971ZM104.089 50.2827C100.401 50.2827 96.899 49.4832 93.7478 48.048H114.431C111.279 49.4832 107.778 50.2827 104.089 50.2827ZM79.2122 23.0506C79.3034 22.032 79.4557 21.031 79.6654 20.0513H128.513C128.723 21.031 128.875 22.032 128.966 23.0506H79.2122ZM80.8822 16.0513C81.2956 15.0157 81.7762 14.0142 82.3188 13.0523H125.86C126.402 14.0142 126.883 15.0157 127.296 16.0513H80.8822ZM123.056 9.05227C122.126 7.96789 121.104 6.96419 120.003 6.05312H88.1753C87.0743 6.96419 86.0528 7.96789 85.1227 9.05227H123.056ZM104.089 0.328003C107.315 0.328003 110.398 0.939582 113.229 2.05312H94.9494C97.7801 0.939582 100.863 0.328003 104.089 0.328003Z" fill="white"/>
</g>
<circle cx="13.7314" cy="75.8583" r="1.07139" fill="#777E8B"/>
<circle cx="18.364" cy="75.8574" r="1.07139" fill="#777E8B"/>
<circle cx="22.9971" cy="75.8574" r="1.07139" fill="#777E8B"/>
<circle cx="27.63" cy="75.8574" r="1.07139" fill="#777E8B"/>
<circle cx="32.263" cy="75.8574" r="1.07139" fill="#777E8B"/>
<circle cx="13.7311" cy="80.4901" r="1.07139" fill="#777E8B"/>
<circle cx="18.364" cy="80.4901" r="1.07139" fill="#777E8B"/>
<circle cx="22.9971" cy="80.4901" r="1.07139" fill="#777E8B"/>
<circle cx="27.63" cy="80.4901" r="1.07139" fill="#777E8B"/>
<circle cx="32.263" cy="80.4901" r="1.07139" fill="#777E8B"/>
<circle cx="13.7311" cy="85.1235" r="1.07139" fill="#777E8B"/>
<circle cx="18.364" cy="85.1235" r="1.07139" fill="#777E8B"/>
<circle cx="22.9971" cy="85.1235" r="1.07139" fill="#777E8B"/>
<circle cx="27.63" cy="85.1235" r="1.07139" fill="#777E8B"/>
<circle cx="32.263" cy="85.1235" r="1.07139" fill="#777E8B"/>
<circle cx="13.7311" cy="89.7562" r="1.07139" fill="#777E8B"/>
<circle cx="18.364" cy="89.7562" r="1.07139" fill="#777E8B"/>
<circle cx="22.9971" cy="89.7562" r="1.07139" fill="#777E8B"/>
<circle cx="27.63" cy="89.7562" r="1.07139" fill="#777E8B"/>
<circle cx="32.263" cy="89.7562" r="1.07139" fill="#777E8B"/>
<circle cx="13.7311" cy="94.0032" r="1.07139" fill="#777E8B"/>
<circle cx="18.364" cy="94.0032" r="1.07139" fill="#777E8B"/>
<circle cx="22.9971" cy="94.0032" r="1.07139" fill="#777E8B"/>
<circle cx="27.63" cy="94.0032" r="1.07139" fill="#777E8B"/>
<circle cx="32.263" cy="94.0032" r="1.07139" fill="#777E8B"/>
<circle cx="13.7311" cy="98.6755" r="1.07139" fill="#777E8B"/>
<circle cx="18.3641" cy="98.675" r="1.07139" fill="#777E8B"/>
<circle cx="22.9971" cy="98.675" r="1.07139" fill="#777E8B"/>
<circle cx="27.6301" cy="98.675" r="1.07139" fill="#777E8B"/>
<circle cx="32.263" cy="98.675" r="1.07139" fill="#777E8B"/>
<circle cx="13.7311" cy="103.308" r="1.07139" fill="#777E8B"/>
<circle cx="18.3641" cy="103.308" r="1.07139" fill="#777E8B"/>
<circle cx="22.9971" cy="103.308" r="1.07139" fill="#777E8B"/>
<circle cx="27.6301" cy="103.308" r="1.07139" fill="#777E8B"/>
<circle cx="32.263" cy="103.308" r="1.07139" fill="#777E8B"/>
<circle cx="13.7311" cy="107.941" r="1.07139" fill="#777E8B"/>
<circle cx="18.3641" cy="107.941" r="1.07139" fill="#777E8B"/>
<circle cx="22.9971" cy="107.941" r="1.07139" fill="#777E8B"/>
<circle cx="27.6301" cy="107.941" r="1.07139" fill="#777E8B"/>
<circle cx="32.263" cy="107.941" r="1.07139" fill="#777E8B"/>
<circle cx="13.7311" cy="112.574" r="1.07139" fill="#777E8B"/>
<circle cx="18.3641" cy="112.574" r="1.07139" fill="#777E8B"/>
<circle cx="22.9971" cy="112.574" r="1.07139" fill="#777E8B"/>
<circle cx="27.6301" cy="112.574" r="1.07139" fill="#777E8B"/>
<circle cx="32.263" cy="112.574" r="1.07139" fill="#777E8B"/>
<circle cx="13.7311" cy="116.821" r="1.07139" fill="#777E8B"/>
<circle cx="18.3641" cy="116.821" r="1.07139" fill="#777E8B"/>
<circle cx="22.9971" cy="116.821" r="1.07139" fill="#777E8B"/>
<circle cx="27.6301" cy="116.821" r="1.07139" fill="#777E8B"/>
<circle cx="32.263" cy="116.821" r="1.07139" fill="#777E8B"/>
<circle cx="36.9352" cy="75.8579" r="1.07139" fill="#777E8B"/>
<circle cx="41.5682" cy="75.8574" r="1.07139" fill="#777E8B"/>
<circle cx="46.2013" cy="75.8574" r="1.07139" fill="#777E8B"/>
<circle cx="50.8341" cy="75.8574" r="1.07139" fill="#777E8B"/>
<circle cx="55.4671" cy="75.8574" r="1.07139" fill="#777E8B"/>
<circle cx="36.9353" cy="80.4901" r="1.07139" fill="#777E8B"/>
<circle cx="41.5682" cy="80.4901" r="1.07139" fill="#777E8B"/>
<circle cx="46.2013" cy="80.4901" r="1.07139" fill="#777E8B"/>
<circle cx="50.8341" cy="80.4901" r="1.07139" fill="#777E8B"/>
<circle cx="55.4671" cy="80.4901" r="1.07139" fill="#777E8B"/>
<circle cx="36.9353" cy="85.1235" r="1.07139" fill="#777E8B"/>
<circle cx="41.5682" cy="85.1235" r="1.07139" fill="#777E8B"/>
<circle cx="46.2013" cy="85.1235" r="1.07139" fill="#777E8B"/>
<circle cx="50.8341" cy="85.1235" r="1.07139" fill="#777E8B"/>
<circle cx="55.4671" cy="85.1235" r="1.07139" fill="#777E8B"/>
<circle cx="36.9353" cy="89.7562" r="1.07139" fill="#777E8B"/>
<circle cx="41.5682" cy="89.7562" r="1.07139" fill="#777E8B"/>
<circle cx="46.2013" cy="89.7562" r="1.07139" fill="#777E8B"/>
<circle cx="50.8341" cy="89.7562" r="1.07139" fill="#777E8B"/>
<circle cx="55.4671" cy="89.7562" r="1.07139" fill="#777E8B"/>
<circle cx="36.9353" cy="94.0032" r="1.07139" fill="#777E8B"/>
<circle cx="41.5682" cy="94.0032" r="1.07139" fill="#777E8B"/>
<circle cx="46.2013" cy="94.0032" r="1.07139" fill="#777E8B"/>
<circle cx="50.8341" cy="94.0032" r="1.07139" fill="#777E8B"/>
<circle cx="55.4671" cy="94.0032" r="1.07139" fill="#777E8B"/>
<circle cx="36.9352" cy="98.676" r="1.07139" fill="#777E8B"/>
<circle cx="41.5682" cy="98.6754" r="1.07139" fill="#777E8B"/>
<circle cx="46.2013" cy="98.6754" r="1.07139" fill="#777E8B"/>
<circle cx="50.8341" cy="98.6754" r="1.07139" fill="#777E8B"/>
<circle cx="55.4671" cy="98.6754" r="1.07139" fill="#777E8B"/>
<circle cx="36.9353" cy="103.308" r="1.07139" fill="#777E8B"/>
<circle cx="41.5682" cy="103.308" r="1.07139" fill="#777E8B"/>
<circle cx="46.2013" cy="103.308" r="1.07139" fill="#777E8B"/>
<circle cx="50.8341" cy="103.308" r="1.07139" fill="#777E8B"/>
<circle cx="55.4671" cy="103.308" r="1.07139" fill="#777E8B"/>
<circle cx="36.9353" cy="107.942" r="1.07139" fill="#777E8B"/>
<circle cx="41.5682" cy="107.942" r="1.07139" fill="#777E8B"/>
<circle cx="46.2013" cy="107.942" r="1.07139" fill="#777E8B"/>
<circle cx="50.8341" cy="107.942" r="1.07139" fill="#777E8B"/>
<circle cx="55.4671" cy="107.942" r="1.07139" fill="#777E8B"/>
<circle cx="36.9353" cy="112.574" r="1.07139" fill="#777E8B"/>
<circle cx="41.5682" cy="112.574" r="1.07139" fill="#777E8B"/>
<circle cx="46.2013" cy="112.574" r="1.07139" fill="#777E8B"/>
<circle cx="50.8341" cy="112.574" r="1.07139" fill="#777E8B"/>
<circle cx="55.4671" cy="112.574" r="1.07139" fill="#777E8B"/>
<circle cx="36.9353" cy="116.821" r="1.07139" fill="#777E8B"/>
<circle cx="41.5682" cy="116.821" r="1.07139" fill="#777E8B"/>
<circle cx="46.2013" cy="116.821" r="1.07139" fill="#777E8B"/>
<circle cx="50.8341" cy="116.821" r="1.07139" fill="#777E8B"/>
<circle cx="55.4671" cy="116.821" r="1.07139" fill="#777E8B"/>
</svg>
