<svg focusable="false" width="48" height="48" viewBox="0 0 48 48" xmlns="http://www.w3.org/2000/svg"><g fill="none" fill-rule="evenodd"><path d="m36 25h10c-.507 11.382-9.618 20.493-21 21v-10c5.8686585-.4717055 10.5282945-5.1313415 11-11zm4.24-15.82c3.4913351 3.7821984 5.5317543 8.6777875 5.76 13.82h-10c-.2222605-2.4874534-1.2150537-4.8435893-2.84-6.74zm-15.24-7.18c5.1370686.21724091 10.0320275 2.24322971 13.82 5.72l-7.1 7.1c-1.8826569-1.6314467-4.2369031-2.6193892-6.72-2.82z" fill="#dbdfe7"/><path d="m23 12v-10c-11.382.507-20.493 9.618-21 21v2c.22785861 5.1385023 2.26036253 10.0320918 5.74 13.82.443.503.917.977 1.42 1.42 3.7873829 3.4956835 8.6908171 5.5364192 13.84 5.76v-10c-2.4830969-.2006108-4.8373431-1.1885533-6.72-2.82-.5280201-.4145882-1.0107054-.8838656-1.44-1.4-1.6326-1.9072694-2.625883-4.2785578-2.84-6.78v-1c-.0204944-.3330183-.0204944-.6669817 0-1 .4717055-5.8686585 5.1313415-10.5282945 11-11z" fill="#2e75f0" fill-rule="nonzero"/></g></svg>