<svg focusable="false" width="48" height="48" viewBox="0 0 48 48" xmlns="http://www.w3.org/2000/svg"><g fill="none" fill-rule="evenodd"><path d="m4.5 4v39.5h39.5" stroke="#47515f" vector-effect="non-scaling-stroke"/><path d="m13 35a3 3 0 1 1 0-6 3 3 0 0 1 0 6zm0-15a3 3 0 1 1 0-6 3 3 0 0 1 0 6zm12 15a3 3 0 1 1 0-6 3 3 0 0 1 0 6zm0-15a3 3 0 1 1 0-6 3 3 0 0 1 0 6zm12 15a3 3 0 1 1 0-6 3 3 0 0 1 0 6zm0-15a3 3 0 1 1 0-6 3 3 0 0 1 0 6z" fill="#c0c6cf" fill-rule="nonzero"/><path d="m10 24.5h30" stroke="#fcc838" vector-effect="non-scaling-stroke"/></g></svg>