<svg focusable="false" width="48" height="48" viewBox="0 0 48 48" xmlns="http://www.w3.org/2000/svg"><g fill="none" fill-rule="nonzero"><path d="m4.5 12.57 19.3-11.15 19.3 11.15v22.28l-19.3 11.15-19.3-11.14v-22.3zm1 .57v21.14l18.3 10.56 18.3-10.56v-21.14l-18.3-10.56zm4 2.43 14.1-8.15 14.11 8.15v16.29l-14.1 8.14-14.11-8.14v-16.3zm1 .57v15.14l13.1 7.56 13.11-7.56v-15.14l-13.1-7.56zm12.91-2.72 8.91 5.15v10.29l-8.91 5.14-8.91-5.14v-10.3zm0 1.16-7.91 4.56v9.14l7.91 4.56 7.91-4.56v-9.14z" fill="#c0c6cf"/><g fill="#06bf7f"><path d="m9 33.733 6.4-17.066 8.533-8.667 8.534 12.933 6.4 8.534-12.8 8.533z" opacity=".4"/><path d="m9.66 33.38 16.31 4.08 12.18-8.12-6.1-8.13-8.2-12.42-8.02 8.15zm5.27-16.89.11-.17 8.97-9.11.34.51 8.52 12.91 6.71 8.96-13.42 8.95-17.82-4.46 6.6-17.59z"/></g></g></svg>