<svg width="140" height="118" viewBox="0 0 140 118" fill="none" xmlns="http://www.w3.org/2000/svg">
<g clip-path="url(#clip0)">
<path fill-rule="evenodd" clip-rule="evenodd" d="M137.997 32.7474C137.917 33.8281 137.777 34.8924 137.583 35.9372H80.1216C79.9268 34.8924 79.7875 33.8281 79.707 32.7474H137.997ZM82.966 44.1271C82.4252 43.0984 81.9439 42.0336 81.5267 40.9372H136.178C135.76 42.0336 135.279 43.0984 134.738 44.1271H82.966ZM86.2916 49.1271C87.2307 50.266 88.2544 51.3326 89.3531 52.3172H128.351C129.45 51.3326 130.474 50.266 131.413 49.1271H86.2916ZM108.852 59.7723C104.675 59.7723 100.703 58.896 97.1086 57.3172H120.596C117.002 58.896 113.029 59.7723 108.852 59.7723ZM137.947 27.7474H79.7575C79.8603 26.6658 80.0219 25.6014 80.2393 24.5573H137.465C137.682 25.6014 137.844 26.6658 137.947 27.7474ZM83.2884 16.3676C82.7177 17.3944 82.207 18.4593 81.7612 19.5573H135.943C135.497 18.4593 134.987 17.3944 134.416 16.3676H83.2884ZM130.908 11.3676H86.7967C87.7933 10.2224 88.8777 9.15561 90.0393 8.17763H127.665C128.827 9.15561 129.911 10.2224 130.908 11.3676ZM108.852 1.31866C112.47 1.31866 115.934 1.97595 119.132 3.17763H98.5725C101.77 1.97595 105.234 1.31866 108.852 1.31866Z" fill="#747E8C"/>
<mask id="path-2-inside-1" fill="white">
<path fill-rule="evenodd" clip-rule="evenodd" d="M57.055 84.9954C77.5942 84.9954 94.2446 68.345 94.2446 47.8058C94.2446 27.2665 77.5942 10.6161 57.055 10.6161C36.5157 10.6161 19.8654 27.2665 19.8654 47.8058C19.8654 68.345 36.5157 84.9954 57.055 84.9954ZM56.9057 73.0329C70.768 73.0329 82.0057 61.7953 82.0057 47.933C82.0057 34.0707 70.768 22.833 56.9057 22.833C43.0434 22.833 31.8058 34.0707 31.8058 47.933C31.8058 61.7953 43.0434 73.0329 56.9057 73.0329Z"/>
</mask>
<path fill-rule="evenodd" clip-rule="evenodd" d="M57.055 84.9954C77.5942 84.9954 94.2446 68.345 94.2446 47.8058C94.2446 27.2665 77.5942 10.6161 57.055 10.6161C36.5157 10.6161 19.8654 27.2665 19.8654 47.8058C19.8654 68.345 36.5157 84.9954 57.055 84.9954ZM56.9057 73.0329C70.768 73.0329 82.0057 61.7953 82.0057 47.933C82.0057 34.0707 70.768 22.833 56.9057 22.833C43.0434 22.833 31.8058 34.0707 31.8058 47.933C31.8058 61.7953 43.0434 73.0329 56.9057 73.0329Z" fill="#C0C6CF"/>
<path d="M88.2446 47.8058C88.2446 65.0313 74.2805 78.9954 57.055 78.9954V90.9954C80.908 90.9954 100.245 71.6587 100.245 47.8058H88.2446ZM57.055 16.6161C74.2805 16.6161 88.2446 30.5802 88.2446 47.8058H100.245C100.245 23.9528 80.908 4.61613 57.055 4.61613V16.6161ZM25.8654 47.8058C25.8654 30.5802 39.8294 16.6161 57.055 16.6161V4.61613C33.202 4.61613 13.8654 23.9528 13.8654 47.8058H25.8654ZM57.055 78.9954C39.8294 78.9954 25.8654 65.0313 25.8654 47.8058H13.8654C13.8654 71.6587 33.202 90.9954 57.055 90.9954V78.9954ZM76.0057 47.933C76.0057 58.4816 67.4543 67.0329 56.9057 67.0329V79.0329C74.0818 79.0329 88.0057 65.109 88.0057 47.933H76.0057ZM56.9057 28.833C67.4543 28.833 76.0057 37.3844 76.0057 47.933H88.0057C88.0057 30.757 74.0818 16.833 56.9057 16.833V28.833ZM37.8058 47.933C37.8058 37.3844 46.3571 28.833 56.9057 28.833V16.833C39.7297 16.833 25.8058 30.757 25.8058 47.933H37.8058ZM56.9057 67.0329C46.3571 67.0329 37.8058 58.4816 37.8058 47.933H25.8058C25.8058 65.109 39.7297 79.0329 56.9057 79.0329V67.0329Z" fill="#C0C6CF" mask="url(#path-2-inside-1)"/>
<circle cx="39.5737" cy="78.7235" r="1.25367" fill="#777E8B"/>
<circle cx="44.9949" cy="78.7235" r="1.25367" fill="#777E8B"/>
<circle cx="50.416" cy="78.7235" r="1.25367" fill="#777E8B"/>
<circle cx="39.5737" cy="84.1445" r="1.25367" fill="#777E8B"/>
<circle cx="44.9949" cy="84.1445" r="1.25367" fill="#777E8B"/>
<circle cx="50.416" cy="84.1445" r="1.25367" fill="#777E8B"/>
<circle cx="39.5737" cy="89.1139" r="1.25367" fill="#777E8B"/>
<circle cx="44.9949" cy="89.1139" r="1.25367" fill="#777E8B"/>
<circle cx="50.416" cy="89.1139" r="1.25367" fill="#777E8B"/>
<circle cx="39.5737" cy="94.9644" r="1.25367" fill="#777E8B"/>
<circle cx="44.9949" cy="94.9644" r="1.25367" fill="#777E8B"/>
<circle cx="50.416" cy="94.9644" r="1.25367" fill="#777E8B"/>
<circle cx="39.5737" cy="100.385" r="1.25367" fill="#777E8B"/>
<circle cx="44.9949" cy="100.385" r="1.25367" fill="#777E8B"/>
<circle cx="50.416" cy="100.385" r="1.25367" fill="#777E8B"/>
<circle cx="39.5737" cy="105.807" r="1.25367" fill="#777E8B"/>
<circle cx="44.9949" cy="105.807" r="1.25367" fill="#777E8B"/>
<circle cx="50.416" cy="105.807" r="1.25367" fill="#777E8B"/>
<circle cx="39.5737" cy="111.228" r="1.25367" fill="#777E8B"/>
<circle cx="44.9949" cy="111.228" r="1.25367" fill="#777E8B"/>
<circle cx="50.416" cy="111.228" r="1.25367" fill="#777E8B"/>
<circle cx="39.5737" cy="116.198" r="1.25367" fill="#777E8B"/>
<circle cx="44.9949" cy="116.198" r="1.25367" fill="#777E8B"/>
<circle cx="50.416" cy="116.198" r="1.25367" fill="#777E8B"/>
<mask id="mask0" mask-type="alpha" maskUnits="userSpaceOnUse" x="79" y="1" width="59" height="59">
<path fill-rule="evenodd" clip-rule="evenodd" d="M137.997 32.7474C137.916 33.8281 137.777 34.8924 137.582 35.9372H80.1214C79.9265 34.8924 79.7873 33.8281 79.7068 32.7474H137.997ZM82.9658 44.1271C82.4249 43.0984 81.9436 42.0336 81.5264 40.9372H136.177C135.76 42.0336 135.279 43.0984 134.738 44.1271H82.9658ZM86.2914 49.1271C87.2305 50.266 88.2542 51.3326 89.3528 52.3172H128.351C129.45 51.3326 130.473 50.266 131.412 49.1271H86.2914ZM108.852 59.7723C104.675 59.7723 100.702 58.896 97.1083 57.3172H120.595C117.001 58.896 113.029 59.7723 108.852 59.7723ZM137.946 27.7474H79.7573C79.86 26.6658 80.0217 25.6014 80.2391 24.5573H137.465C137.682 25.6014 137.844 26.6658 137.946 27.7474ZM83.2881 16.3676C82.7174 17.3944 82.2068 18.4593 81.761 19.5573H135.943C135.497 18.4593 134.986 17.3944 134.416 16.3676H83.2881ZM130.907 11.3676H86.7965C87.7931 10.2224 88.8774 9.15561 90.039 8.17763H127.665C128.826 9.15561 129.911 10.2224 130.907 11.3676ZM108.852 1.31866C112.47 1.31866 115.934 1.97595 119.131 3.17763H98.5723C101.77 1.97595 105.234 1.31866 108.852 1.31866Z" fill="#777E8B"/>
</mask>
<g mask="url(#mask0)">
<mask id="path-29-inside-2" fill="white">
<path fill-rule="evenodd" clip-rule="evenodd" d="M57.0545 84.9953C77.5938 84.9953 94.2441 68.345 94.2441 47.8057C94.2441 27.2664 77.5938 10.6161 57.0545 10.6161C36.5152 10.6161 19.8649 27.2664 19.8649 47.8057C19.8649 68.345 36.5152 84.9953 57.0545 84.9953ZM57.0545 71.7134C70.2583 71.7134 80.9621 61.0096 80.9621 47.8057C80.9621 34.6019 70.2583 23.8981 57.0545 23.8981C43.8506 23.8981 33.1468 34.6019 33.1468 47.8057C33.1468 61.0096 43.8506 71.7134 57.0545 71.7134Z"/>
</mask>
<path fill-rule="evenodd" clip-rule="evenodd" d="M57.0545 84.9953C77.5938 84.9953 94.2441 68.345 94.2441 47.8057C94.2441 27.2664 77.5938 10.6161 57.0545 10.6161C36.5152 10.6161 19.8649 27.2664 19.8649 47.8057C19.8649 68.345 36.5152 84.9953 57.0545 84.9953ZM57.0545 71.7134C70.2583 71.7134 80.9621 61.0096 80.9621 47.8057C80.9621 34.6019 70.2583 23.8981 57.0545 23.8981C43.8506 23.8981 33.1468 34.6019 33.1468 47.8057C33.1468 61.0096 43.8506 71.7134 57.0545 71.7134Z" fill="white"/>
<path d="M88.2441 47.8057C88.2441 65.0312 74.28 78.9953 57.0545 78.9953V90.9953C80.9075 90.9953 100.244 71.6587 100.244 47.8057H88.2441ZM57.0545 16.6161C74.28 16.6161 88.2441 30.5801 88.2441 47.8057H100.244C100.244 23.9527 80.9075 4.61607 57.0545 4.61607V16.6161ZM25.8649 47.8057C25.8649 30.5801 39.8289 16.6161 57.0545 16.6161V4.61607C33.2015 4.61607 13.8649 23.9527 13.8649 47.8057H25.8649ZM57.0545 78.9953C39.8289 78.9953 25.8649 65.0312 25.8649 47.8057H13.8649C13.8649 71.6587 33.2015 90.9953 57.0545 90.9953V78.9953ZM74.9621 47.8057C74.9621 57.6958 66.9446 65.7134 57.0545 65.7134V77.7134C73.572 77.7134 86.9621 64.3233 86.9621 47.8057H74.9621ZM57.0545 29.8981C66.9446 29.8981 74.9621 37.9156 74.9621 47.8057H86.9621C86.9621 31.2882 73.572 17.8981 57.0545 17.8981V29.8981ZM39.1468 47.8057C39.1468 37.9156 47.1644 29.8981 57.0545 29.8981V17.8981C40.5369 17.8981 27.1468 31.2882 27.1468 47.8057H39.1468ZM57.0545 65.7134C47.1644 65.7134 39.1468 57.6958 39.1468 47.8057H27.1468C27.1468 64.3233 40.5369 77.7134 57.0545 77.7134V65.7134Z" fill="white" mask="url(#path-29-inside-2)"/>
</g>
<rect x="66.3522" y="78.3622" width="13.282" height="33.205" rx="1" transform="rotate(-30.0378 66.3522 78.3622)" fill="#C0C6CF"/>
<rect x="2" y="93" width="14" height="24" fill="#777E8B"/>
<mask id="mask1" mask-type="alpha" maskUnits="userSpaceOnUse" x="21" y="67" width="13" height="50">
<path fill-rule="evenodd" clip-rule="evenodd" d="M31.9829 67L29.0156 67L34 70.7357L34 68.5118L31.9829 67ZM34 72.7719L26.2988 67L23.3315 67L34 74.9958L34 72.7719ZM34 77.0321L21 67.2888L21 69.5128L34 79.2561L34 77.0321ZM34 81.2922L21 71.5489L21 73.7728L34 83.5161L34 81.2922ZM34 85.5522L21 75.8089L21 78.0329L34 87.7761L34 85.5522ZM34 89.8125L21 80.0692L21 82.2932L34 92.0365L34 89.8125ZM34 94.0728L21 84.3295L21 86.5534L34 96.2967L34 94.0728ZM34 98.333L21 88.5897L21 90.8137L34 100.557L34 98.333ZM34 102.593L21 92.8498L21 95.0738L34 104.817L34 102.593ZM34 106.853L21 97.11L21 99.3339L34 109.077L34 106.853ZM34 111.114L21 101.37L21 103.594L34 113.337L34 111.114ZM34 115.374L21 105.63L21 107.854L33.2027 117L34 117L34 115.374ZM30.4858 117L21 109.891L21 112.114L27.5185 117L30.4858 117ZM24.8018 117L21 114.151L21 116.375L21.8345 117L24.8018 117Z" fill="#C4C4C4"/>
</mask>
<g mask="url(#mask1)">
<rect x="20.7363" y="67.4688" width="12.9609" height="49.5599" fill="#777E8B"/>
</g>
</g>
<defs>
<clipPath id="clip0">
<rect width="140" height="118" fill="white"/>
</clipPath>
</defs>
</svg>
