<svg width="140" height="118" viewBox="0 0 140 118" fill="none" xmlns="http://www.w3.org/2000/svg">
<g clip-path="url(#clip0)">
<path fill-rule="evenodd" clip-rule="evenodd" d="M68.3795 108.661C95.1653 108.661 116.88 86.9464 116.88 60.1606C116.88 33.3748 95.1653 11.6606 68.3795 11.6606C41.5937 11.6606 19.8795 33.3748 19.8795 60.1606C19.8795 86.9464 41.5937 108.661 68.3795 108.661ZM65.1824 39.4955L60.4781 51.498L47.3073 52.1705C44.3708 52.3204 43.1914 56.0635 45.5035 57.895L55.6818 65.9577L52.2988 78.3025C51.5248 81.1267 54.6028 83.4321 57.0606 81.8692L68.1401 74.8237L79.2195 81.8692C81.6773 83.4321 84.7553 81.1267 83.9814 78.3025L80.5983 65.9577L90.7766 57.895C93.0887 56.0635 91.9093 52.3204 88.9728 52.1705L75.802 51.498L71.0977 39.4955C70.0378 36.7913 66.2423 36.7913 65.1824 39.4955Z" fill="#C0C6CF"/>
<circle cx="2.07003" cy="76.1483" r="1.07003" fill="#777E8B"/>
<circle cx="6.6971" cy="76.1475" r="1.07003" fill="#777E8B"/>
<circle cx="11.3242" cy="76.1475" r="1.07003" fill="#777E8B"/>
<circle cx="15.9513" cy="76.1475" r="1.07003" fill="#777E8B"/>
<circle cx="20.5785" cy="76.1475" r="1.07003" fill="#777E8B"/>
<circle cx="2.07003" cy="80.7744" r="1.07003" fill="#777E8B"/>
<circle cx="6.6971" cy="80.7744" r="1.07003" fill="#777E8B"/>
<circle cx="11.3242" cy="80.7744" r="1.07003" fill="#777E8B"/>
<circle cx="15.9513" cy="80.7744" r="1.07003" fill="#777E8B"/>
<circle cx="20.5785" cy="80.7744" r="1.07003" fill="#777E8B"/>
<circle cx="2.07003" cy="85.4018" r="1.07003" fill="#777E8B"/>
<circle cx="6.6971" cy="85.4018" r="1.07003" fill="#777E8B"/>
<circle cx="11.3242" cy="85.4018" r="1.07003" fill="#777E8B"/>
<circle cx="15.9513" cy="85.4018" r="1.07003" fill="#777E8B"/>
<circle cx="20.5785" cy="85.4018" r="1.07003" fill="#777E8B"/>
<circle cx="2.07003" cy="90.0287" r="1.07003" fill="#777E8B"/>
<circle cx="6.6971" cy="90.0287" r="1.07003" fill="#777E8B"/>
<circle cx="11.3242" cy="90.0287" r="1.07003" fill="#777E8B"/>
<circle cx="15.9513" cy="90.0287" r="1.07003" fill="#777E8B"/>
<circle cx="20.5785" cy="90.0287" r="1.07003" fill="#777E8B"/>
<circle cx="2.07003" cy="94.2701" r="1.07003" fill="#777E8B"/>
<circle cx="6.6971" cy="94.2701" r="1.07003" fill="#777E8B"/>
<circle cx="11.3242" cy="94.2701" r="1.07003" fill="#777E8B"/>
<circle cx="15.9513" cy="94.2701" r="1.07003" fill="#777E8B"/>
<circle cx="20.5785" cy="94.2701" r="1.07003" fill="#777E8B"/>
<circle cx="2.07003" cy="98.9365" r="1.07003" fill="#777E8B"/>
<circle cx="6.6971" cy="98.9363" r="1.07003" fill="#777E8B"/>
<circle cx="11.3242" cy="98.9363" r="1.07003" fill="#777E8B"/>
<circle cx="15.9513" cy="98.9363" r="1.07003" fill="#777E8B"/>
<circle cx="20.5785" cy="98.9363" r="1.07003" fill="#777E8B"/>
<circle cx="2.07003" cy="103.563" r="1.07003" fill="#777E8B"/>
<circle cx="6.6971" cy="103.563" r="1.07003" fill="#777E8B"/>
<circle cx="11.3242" cy="103.563" r="1.07003" fill="#777E8B"/>
<circle cx="15.9513" cy="103.563" r="1.07003" fill="#777E8B"/>
<circle cx="20.5785" cy="103.563" r="1.07003" fill="#777E8B"/>
<circle cx="2.07003" cy="108.191" r="1.07003" fill="#777E8B"/>
<circle cx="6.6971" cy="108.191" r="1.07003" fill="#777E8B"/>
<circle cx="11.3242" cy="108.191" r="1.07003" fill="#777E8B"/>
<circle cx="15.9513" cy="108.191" r="1.07003" fill="#777E8B"/>
<circle cx="20.5785" cy="108.191" r="1.07003" fill="#777E8B"/>
<circle cx="2.07003" cy="112.817" r="1.07003" fill="#777E8B"/>
<circle cx="6.6971" cy="112.817" r="1.07003" fill="#777E8B"/>
<circle cx="11.3242" cy="112.817" r="1.07003" fill="#777E8B"/>
<circle cx="15.9513" cy="112.817" r="1.07003" fill="#777E8B"/>
<circle cx="20.5785" cy="112.817" r="1.07003" fill="#777E8B"/>
<circle cx="2.07003" cy="117.059" r="1.07003" fill="#777E8B"/>
<circle cx="6.6971" cy="117.059" r="1.07003" fill="#777E8B"/>
<circle cx="11.3242" cy="117.059" r="1.07003" fill="#777E8B"/>
<circle cx="15.9513" cy="117.059" r="1.07003" fill="#777E8B"/>
<circle cx="20.5785" cy="117.059" r="1.07003" fill="#777E8B"/>
<circle cx="25.2445" cy="76.148" r="1.07003" fill="#777E8B"/>
<circle cx="29.8717" cy="76.1475" r="1.07003" fill="#777E8B"/>
<circle cx="34.4987" cy="76.1475" r="1.07003" fill="#777E8B"/>
<circle cx="39.1257" cy="76.1475" r="1.07003" fill="#777E8B"/>
<circle cx="43.7528" cy="76.1475" r="1.07003" fill="#777E8B"/>
<circle cx="25.2446" cy="80.7744" r="1.07003" fill="#777E8B"/>
<circle cx="29.8717" cy="80.7744" r="1.07003" fill="#777E8B"/>
<circle cx="34.4987" cy="80.7744" r="1.07003" fill="#777E8B"/>
<circle cx="39.1257" cy="80.7744" r="1.07003" fill="#777E8B"/>
<circle cx="43.7528" cy="80.7744" r="1.07003" fill="#777E8B"/>
<circle cx="25.2446" cy="85.4018" r="1.07003" fill="#777E8B"/>
<circle cx="29.8717" cy="85.4018" r="1.07003" fill="#777E8B"/>
<circle cx="34.4987" cy="85.4018" r="1.07003" fill="#777E8B"/>
<circle cx="39.1257" cy="85.4018" r="1.07003" fill="#777E8B"/>
<circle cx="43.7528" cy="85.4018" r="1.07003" fill="#777E8B"/>
<circle cx="25.2446" cy="90.0287" r="1.07003" fill="#777E8B"/>
<circle cx="29.8717" cy="90.0287" r="1.07003" fill="#777E8B"/>
<circle cx="34.4987" cy="90.0287" r="1.07003" fill="#777E8B"/>
<circle cx="39.1257" cy="90.0287" r="1.07003" fill="#777E8B"/>
<circle cx="43.7528" cy="90.0287" r="1.07003" fill="#777E8B"/>
<circle cx="25.2446" cy="94.2701" r="1.07003" fill="#777E8B"/>
<circle cx="29.8717" cy="94.2701" r="1.07003" fill="#777E8B"/>
<circle cx="34.4987" cy="94.2701" r="1.07003" fill="#777E8B"/>
<circle cx="39.1257" cy="94.2701" r="1.07003" fill="#777E8B"/>
<circle cx="43.7528" cy="94.2701" r="1.07003" fill="#777E8B"/>
<circle cx="25.2445" cy="98.9367" r="1.07003" fill="#777E8B"/>
<circle cx="29.8717" cy="98.9364" r="1.07003" fill="#777E8B"/>
<circle cx="34.4987" cy="98.9364" r="1.07003" fill="#777E8B"/>
<circle cx="39.1257" cy="98.9364" r="1.07003" fill="#777E8B"/>
<circle cx="43.7528" cy="98.9364" r="1.07003" fill="#777E8B"/>
<circle cx="25.2446" cy="103.563" r="1.07003" fill="#777E8B"/>
<circle cx="29.8717" cy="103.563" r="1.07003" fill="#777E8B"/>
<circle cx="34.4987" cy="103.563" r="1.07003" fill="#777E8B"/>
<circle cx="39.1257" cy="103.563" r="1.07003" fill="#777E8B"/>
<circle cx="43.7528" cy="103.563" r="1.07003" fill="#777E8B"/>
<circle cx="25.2446" cy="108.191" r="1.07003" fill="#777E8B"/>
<circle cx="29.8717" cy="108.191" r="1.07003" fill="#777E8B"/>
<circle cx="34.4987" cy="108.191" r="1.07003" fill="#777E8B"/>
<circle cx="39.1257" cy="108.191" r="1.07003" fill="#777E8B"/>
<circle cx="43.7528" cy="108.191" r="1.07003" fill="#777E8B"/>
<circle cx="25.2446" cy="112.818" r="1.07003" fill="#777E8B"/>
<circle cx="29.8717" cy="112.818" r="1.07003" fill="#777E8B"/>
<circle cx="34.4987" cy="112.818" r="1.07003" fill="#777E8B"/>
<circle cx="39.1257" cy="112.818" r="1.07003" fill="#777E8B"/>
<circle cx="43.7528" cy="112.818" r="1.07003" fill="#777E8B"/>
<circle cx="25.2446" cy="117.059" r="1.07003" fill="#777E8B"/>
<circle cx="29.8717" cy="117.059" r="1.07003" fill="#777E8B"/>
<circle cx="34.4987" cy="117.059" r="1.07003" fill="#777E8B"/>
<circle cx="39.1257" cy="117.059" r="1.07003" fill="#777E8B"/>
<circle cx="43.7528" cy="117.059" r="1.07003" fill="#777E8B"/>
<path fill-rule="evenodd" clip-rule="evenodd" d="M140.008 26.829C139.937 27.8435 139.807 28.8414 139.619 29.819H90.6256C90.4378 28.8414 90.3069 27.8435 90.2368 26.829H140.008ZM93.0989 36.8092C92.5861 35.8483 92.1345 34.8498 91.7491 33.819H138.495C138.11 34.8498 137.658 35.8483 137.145 36.8092H93.0989ZM95.7569 40.8092C96.6306 41.8838 97.5919 42.8842 98.6299 43.7996H131.614C132.652 42.8842 133.614 41.8838 134.487 40.8092H95.7569ZM115.122 50.0288C111.441 50.0288 107.945 49.2313 104.8 47.7996H125.445C122.299 49.2313 118.804 50.0288 115.122 50.0288ZM139.967 22.829H90.2772C90.3681 21.8134 90.52 20.8154 90.729 19.8386H139.515C139.724 20.8154 139.876 21.8134 139.967 22.829ZM93.3781 12.8485C92.8372 13.8077 92.358 14.8061 91.9458 15.8386H138.299C137.886 14.8061 137.407 13.8077 136.866 12.8485H93.3781ZM134.062 8.84855H96.182C97.1095 7.76753 98.1279 6.76684 99.2254 5.85831H131.019C132.116 6.76684 133.135 7.76753 134.062 8.84855ZM124.244 1.85831H106C108.826 0.747767 111.903 0.137878 115.122 0.137878C118.342 0.137878 121.419 0.747767 124.244 1.85831Z" fill="#747E8C"/>
<mask id="mask0" mask-type="alpha" maskUnits="userSpaceOnUse" x="20" y="12" width="97" height="96">
<ellipse cx="68.5" cy="60" rx="48.5" ry="48" fill="#C0C6CF"/>
</mask>
<g mask="url(#mask0)">
<path fill-rule="evenodd" clip-rule="evenodd" d="M140.068 25.0833C140.068 32.5378 136.798 39.2285 131.614 43.7996H98.6298C97.5918 42.8842 96.6305 41.8838 95.7568 40.8092H133.906V36.8092H93.0987C92.586 35.8483 92.1344 34.8498 91.7489 33.819H133.906V29.819H90.6255C90.4376 28.8414 90.3068 27.8435 90.2367 26.829H133.906V22.829H90.2771C90.368 21.8134 90.5199 20.8154 90.7289 19.8386H133.906V15.8386H91.9457C92.3579 14.8061 92.8371 13.8077 93.3779 12.8485H133.906V8.84855H96.1819C97.1093 7.76753 98.1277 6.76684 99.2252 5.85831H131.019C136.546 10.4339 140.068 17.3474 140.068 25.0833ZM104.8 47.7996H125.444C122.299 49.2313 118.804 50.0288 115.122 50.0288C111.441 50.0288 107.945 49.2313 104.8 47.7996ZM115.122 0.137878C118.341 0.137878 121.419 0.747767 124.244 1.85831H106C108.826 0.747767 111.903 0.137878 115.122 0.137878Z" fill="white"/>
</g>
</g>
<defs>
<clipPath id="clip0">
<rect width="140" height="118" fill="white"/>
</clipPath>
</defs>
</svg>
