<svg focusable="false" width="48" height="48" viewBox="0 0 48 48" xmlns="http://www.w3.org/2000/svg"><g fill="none" fill-rule="evenodd"><path d="m4 43.5h40" stroke="#47515f" vector-effect="non-scaling-stroke"/><g fill-rule="nonzero"><path d="m4 28h8v12h-8zm10.67-10h8v22h-8zm10.66-14h8v36h-8zm10.67 10h8v26h-8z" fill="#2e75f0"/><path d="m4 28h8v8h-8zm10.67-12h8v16h-8zm10.66 0h8v12h-8zm10.67-2h8v16h-8z" fill="#48d1e0"/><path d="m4 28h8v4h-8zm10.67-12h8v10h-8zm10.66-6h8v8h-8zm10.67 8h8v6h-8z" fill="#fcc838"/><path d="m4 26h8v2h-8zm10.67-10h8v6h-8zm10.66-12h8v8h-8zm10.67 10h8v4h-8z" fill="#06bf7f"/></g></g></svg>