<svg focusable="false" width="48" height="48" xmlns="http://www.w3.org/2000/svg" viewBox="0 0 48 48"><g fill="none" fill-rule="evenodd"><path fill="#06BF7F" fill-rule="nonzero" d="M23 12V2A22 22 0 0 0 2 23v2a21.86 21.86 0 0 0 7.16 15.24A21.8 21.8 0 0 0 23 46V36a11.7 11.7 0 0 1-6.72-2.82A12 12 0 0 1 12 25v-1a8.14 8.14 0 0 1 0-1 12 12 0 0 1 11-11z"/><path fill="#2E75F0" fill-rule="nonzero" d="M25 2v10a11.7 11.7 0 0 1 6.72 2.82l7.1-7.1A21.8 21.8 0 0 0 25 2z"/><path fill="#48D1E0" fill-rule="nonzero" d="M40.24 9.18l-7.08 7.08A12 12 0 0 1 36 23h10a21.8 21.8 0 0 0-5.76-13.82z"/><path fill="#FCC838" fill-rule="nonzero" d="M36 25a12 12 0 0 1-11 11v10a22 22 0 0 0 21-21H36z"/></g></svg>