<svg focusable="false" width="48" height="48" xmlns="http://www.w3.org/2000/svg" viewBox="0 0 48 48"><g fill="none" fill-rule="evenodd"><path fill="#DBDFE7" d="M36 25h10a22 22 0 0 1-21 21V36a12 12 0 0 0 11-11zM23 12a12 12 0 0 0-11 11c-.02.33-.02.67 0 1v1a12 12 0 0 0 4.28 8.18A11.7 11.7 0 0 0 23 36v10a21.8 21.8 0 0 1-15.26-7.18A21.86 21.86 0 0 1 2 25v-2A22 22 0 0 1 23 2v10zm17.24-2.82A21.8 21.8 0 0 1 46 23H36a12 12 0 0 0-2.84-6.74l7.08-7.08z"/><path fill="#48D1E0" fill-rule="nonzero" d="M25 2v10a11.7 11.7 0 0 1 6.72 2.82l7.1-7.1A21.8 21.8 0 0 0 25 2z"/></g></svg>