<svg focusable="false" width="48" height="48" viewBox="0 0 48 48" xmlns="http://www.w3.org/2000/svg"><g fill="none" fill-rule="evenodd"><path d="m4 4h40v8h-40z" fill="#777e8b"/><path d="m4 14h9.23v5.2h-9.23zm10.26 0h9.23v5.2h-9.23zm10.25 0h9.23v5.2h-9.23zm10.26 0h9.23v5.2h-9.23zm-30.77 6.23h9.23v5.2h-9.23zm10.26 0h9.23v5.2h-9.23zm10.25 0h9.23v5.2h-9.23zm10.26 0h9.23v5.2h-9.23zm-30.77 6.24h9.23v5.19h-9.23v-5.2zm10.26 0h9.23v5.19h-9.23v-5.2zm10.25 0h9.23v5.19h-9.23v-5.2zm10.26 0h9.23v5.19h-9.23v-5.2zm-30.77 6.23h9.23v5.2h-9.23zm10.26 0h9.23v5.2h-9.23zm10.25 0h9.23v5.2h-9.23zm10.26 0h9.23v5.2h-9.23zm-30.77 6.23h9.23v5.2h-9.23zm10.26 0h9.23v5.2h-9.23zm10.25 0h9.23v5.2h-9.23zm10.26 0h9.23v5.2h-9.23z" fill="#dbdfe7"/><g fill-rule="nonzero" transform="translate(0 17.5)"><circle cx="8" cy="8" fill="#06bf7f" r="8"/><path d="m3.62 8.94a1 1 0 1 1 0-2h7.35a1 1 0 0 1 0 2zm8.47-1.8a1 1 0 1 1 -1.42 1.41l-3.29-3.29a1 1 0 1 1 1.42-1.41zm0 1.39-3.3 3.29a1 1 0 0 1 -1.4-1.41l3.28-3.3a1 1 0 0 1 1.42 1.42z" fill="#fff"/></g></g></svg>