<svg focusable="false" width="48" height="48" viewBox="0 0 48 48" xmlns="http://www.w3.org/2000/svg"><g fill="none" fill-rule="evenodd"><path d="m5 44v-40" stroke="#47515f" vector-effect="non-scaling-stroke"/><g fill-rule="nonzero"><path d="m20 4v8h-12v-8zm10 10.667v8h-22v-8zm14 10.666v8h-36v-8zm-10 10.667v8h-26v-8z" fill="#2e75f0"/><path d="m20 4v8h-10v-8zm12 10.667v8h-20v-8zm-2 10.666v8h-16v-8zm2 10.667v8h-16v-8z" fill="#48d1e0"/><path d="m20 4v8h-4v-8zm12 10.667v8h-10v-8zm4 10.666v8h-8v-8zm-6 10.667v8h-6v-8z" fill="#fcc838"/><path d="m22 4v8h-2v-8zm10 10.667v8h-6v-8zm12 10.666v8h-8v-8zm-10 10.667v8h-4v-8z" fill="#06bf7f"/></g></g></svg>